PathFileType	4	(X/Y/Z)	/Users/itak/Documents/Research/Walk-IL/dataset/trc/00515_00183.trc
DataRate	CameraRate	NumFrames	NumMarkers	Units	OrigDataRate	OrigDataStartFrame	OrigNumFrames
100.000000	100.000000	4	55	mm	100.000000	455	521
Frame#	Time	RPSI			LPSI			L3			STRN			T10			C7			CLAV			RBAK			LBAK			LSHO			LUPA			LAEL			LAOL			LWTS			LWPS			LFRA			LIFD			LHPS			LHTS			RSHO			RUPA			RAEL			RAOL			RWTS			RWPS			RFRA			RIFD			RHTS			RHPS			RBHD			LFHD			RFHD			LBHD			LHIP			RHIP			RASI			LASI			LKNE			LTHI			LANK			LTIP			LTOE			LMT1			LMT5			LHEE			RKNE			RTHI			RANK			RTIP			RTOE			RMT1			RMT5			RHEE			*53			*54			
		X1	Y1	Z1	X2	Y2	Z2	X3	Y3	Z3	X4	Y4	Z4	X5	Y5	Z5	X6	Y6	Z6	X7	Y7	Z7	X8	Y8	Z8	X9	Y9	Z9	X10	Y10	Z10	X11	Y11	Z11	X12	Y12	Z12	X13	Y13	Z13	X14	Y14	Z14	X15	Y15	Z15	X16	Y16	Z16	X17	Y17	Z17	X18	Y18	Z18	X19	Y19	Z19	X20	Y20	Z20	X21	Y21	Z21	X22	Y22	Z22	X23	Y23	Z23	X24	Y24	Z24	X25	Y25	Z25	X26	Y26	Z26	X27	Y27	Z27	X28	Y28	Z28	X29	Y29	Z29	X30	Y30	Z30	X31	Y31	Z31	X32	Y32	Z32	X33	Y33	Z33	X34	Y34	Z34	X35	Y35	Z35	X36	Y36	Z36	X37	Y37	Z37	X38	Y38	Z38	X39	Y39	Z39	X40	Y40	Z40	X41	Y41	Z41	X42	Y42	Z42	X43	Y43	Z43	X44	Y44	Z44	X45	Y45	Z45	X46	Y46	Z46	X47	Y47	Z47	X48	Y48	Z48	X49	Y49	Z49	X50	Y50	Z50	X51	Y51	Z51	X52	Y52	Z52	X53	Y53	Z53	X54	Y54	Z54	X55	Y55	Z55	

456	4.55	1197.291625976562	950.3370361328125	239.3788909912109	1319.200073242188	953.5769653320312	224.5434875488281	1263.066650390625	1025.573608398438	230.2838897705078	1293.770141601562	1192.158081054688	441.4518432617188	1255.469482421875	1127.945922851562	215.3480834960938	1247.496215820312	1358.68505859375	258.484375	1281.083740234375	1286.629028320312	407.0430297851562	1161.661743164062	1232.25439453125	224.3404388427734	1331.670776367188	1307.925415039062	217.1678466796875	1416.634521484375	1363.48486328125	295.2673645019531	1486.867919921875	1242.642456054688	282.311279296875	1541.917846679688	1040.063720703125	308.2564086914062	1461.291381835938	1014.164672851562	254.8828125	1550.196166992188	874.7535400390625	431.9074096679688	1569.771362304688	824.65283203125	354.4308166503906	1558.209838867188	960.1052856445312	336.8175964355469	1569.227661132812	723.3743896484375	468.4732971191406	1582.946899414062	779.739013671875	389.0516662597656	1584.065795898438	804.4249877929688	449.3848266601562	1111.801391601562	1345.370483398438	338.9961242675781	1056.692016601562	1275.991943359375	328.9942932128906	1012.267272949219	1010.516479492188	322.8566284179688	1049.827758789062	993.3884887695312	272.3953552246094	1046.69287109375	805.0184326171875	420.3189086914062	996.34521484375	781.6937255859375	349.0052185058594	1004.330200195312	955.3409423828125	325.6982421875	1040.361083984375	646.8984985351562	422.5440673828125	1021.690795898438	713.8289184570312	435.735595703125	994.9489135742188	713.0068969726562	370.0795288085938	1156.936645507812	1505.373291015625	328.7603454589844	1322.10400390625	1582.26708984375	415.3341674804688	1199.047729492188	1566.969482421875	445.0418090820312	1309.421020507812	1520.0478515625	277.1828308105469	1466.798095703125	887.3973388671875	311.9362487792969	1090.404663085938	854.7802734375	372.5178833007812	1172.363525390625	907.70556640625	453.4248962402344	1411.322998046875	925.6871337890625	412.6384582519531	1430.031616210938	472.6827697753906	391.2252197265625	1456.22265625	628.2325439453125	374.3165283203125	1406.683959960938	34.13055801391602	324.6889038085938	1430.531372070312	318.0709533691406	376.9000854492188	1385.5615234375	24.51433563232422	534.0245361328125	1339.9462890625	31.63608932495117	461.0154113769531	1437.297607421875	28.5689754486084	430.4476928710938	1338.09716796875	26.48208808898926	290.1072692871094	1170.30517578125	486.6219482421875	472.7729187011719	1109.296997070312	730.9050903320312	422.2899780273438	1112.6689453125	107.8579711914062	264.7962036132812	1163.078002929688	354.0180358886719	442.2749938964844	1172.819946289062	45.75939178466797	441.9463500976562	1205.248168945312	58.61191558837891	378.8191528320312	1107.8857421875	64.21335601806641	367.432861328125	1155.12451171875	119.5519256591797	209.6010894775391	nan	nan	nan	nan	nan	nan	
457	4.56	1199.884155273438	950.5125122070312	241.6455078125	1321.915893554688	953.5685424804688	226.8266143798828	1266.2392578125	1026.069213867188	232.5082550048828	1296.142578125	1192.155639648438	444.25341796875	1259.02783203125	1128.619018554688	217.5620574951172	1250.88232421875	1359.245971679688	261.4240112304688	1283.56640625	1286.699951171875	409.9688415527344	1165.164672851562	1232.880493164062	226.5115966796875	1335.307495117188	1308.489501953125	220.4746398925781	1419.768310546875	1363.835693359375	299.2777709960938	1490.234619140625	1243.061401367188	287.1675109863281	1545.457885742188	1040.678466796875	314.65380859375	1465.736083984375	1014.369201660156	260.2588195800781	1552.762939453125	876.891357421875	439.6946411132812	1573.796508789062	826.20361328125	362.9567565917969	1561.63818359375	961.328125	343.9532775878906	1571.765014648438	725.8313598632812	477.7591857910156	1586.598510742188	781.6416015625	398.1566772460938	1586.59326171875	806.814453125	458.2991333007812	1114.727783203125	1345.6865234375	341.1673889160156	1059.680908203125	1276.296264648438	330.6661987304688	1015.4375	1010.757934570312	323.6653137207031	1053.0234375	993.8423461914062	273.2354125976562	1050.382080078125	805.1182861328125	420.5881042480469	999.4154052734375	781.9910888671875	349.6665344238281	1007.515686035156	955.5921020507812	326.4100646972656	1044.056762695312	647.103271484375	422.4366149902344	1025.59765625	713.9105224609375	436.0281372070312	998.16162109375	713.2592163085938	370.6002807617188	1160.002075195312	1505.833862304688	331.810791015625	1324.979858398438	1582.357055664062	419.1731567382812	1201.7900390625	1567.1181640625	448.4021301269531	1312.715454101562	1520.44873046875	280.8519592285156	1469.417602539062	887.421630859375	314.3370971679688	1092.823486328125	855.5234985351562	374.8598937988281	1174.906982421875	908.4578247070312	455.5923767089844	1413.942504882812	925.7603759765625	415.0736389160156	1431.504638671875	472.4209594726562	391.9106140136719	1457.835815429688	628.0552978515625	375.9066162109375	1406.66943359375	34.1114501953125	324.6648864746094	1431.342895507812	317.7986145019531	377.1721801757812	1385.581298828125	24.50729370117188	533.98828125	1339.948486328125	31.66117477416992	461.076416015625	1437.27197265625	28.55377388000488	430.4479064941406	1338.082397460938	26.36832427978516	290.2196655273438	1173.453002929688	487.3345336914062	475.0776672363281	1111.834228515625	731.7156982421875	424.9631958007812	1119.862915039062	101.5549087524414	277.8486938476562	1166.97314453125	353.463134765625	447.499267578125	1180.0771484375	46.1736946105957	457.422119140625	1212.454833984375	57.02585983276367	393.7761840820312	1115.098388671875	61.76752471923828	382.0536804199219	1162.283203125	111.6343383789062	222.2219696044922	nan	nan	nan	nan	nan	nan	
458	4.57	1202.335815429688	950.5841674804688	244.0478210449219	1324.509033203125	953.555419921875	229.1022796630859	1269.184326171875	1026.458374023438	234.6081237792969	1298.427490234375	1192.140502929688	446.9395751953125	1262.304443359375	1129.209716796875	219.7664337158203	1254.090087890625	1359.729248046875	264.2412719726562	1285.974487304688	1286.75537109375	412.7725219726562	1168.439331054688	1233.44189453125	228.6750793457031	1338.720581054688	1308.950561523438	223.6073455810547	1422.754028320312	1364.07958984375	303.0259094238281	1493.385131835938	1243.3583984375	291.6749572753906	1548.728759765625	1041.159912109375	320.6240844726562	1469.899047851562	1014.47705078125	265.2803344726562	1555.084594726562	879.0507202148438	447.1847839355469	1577.596557617188	827.75244140625	371.2553100585938	1564.786254882812	962.517333984375	350.7133483886719	1573.942138671875	728.3125	486.7901611328125	1589.999877929688	783.5631103515625	407.0451049804688	1588.849487304688	809.2493896484375	466.9631652832031	1117.542236328125	1345.990112304688	343.32373046875	1062.544677734375	1276.5966796875	332.37939453125	1018.512878417969	1011.002014160156	324.6890563964844	1056.0869140625	994.280517578125	274.2770385742188	1054.009155273438	805.1564331054688	420.9664916992188	1002.405090332031	782.2606811523438	350.4372863769531	1010.621459960938	955.8297729492188	327.3196716308594	1047.692138671875	647.1953735351562	422.3404235839844	1029.414306640625	713.9073486328125	436.3605651855469	1001.301452636719	713.4902954101562	371.1712951660156	1162.95654296875	1506.244262695312	334.7525329589844	1327.72265625	1582.37939453125	422.9202270507812	1204.423217773438	1567.166015625	451.6859436035156	1315.864135742188	1520.837890625	284.3998718261719	1471.926513671875	887.4171752929688	316.6891784667969	1095.1640625	856.1383056640625	377.1924438476562	1177.37548828125	909.09814453125	457.7644653320312	1416.478759765625	925.8223876953125	417.4725952148438	1432.971923828125	472.1674194335938	392.6470947265625	1459.421508789062	627.8944091796875	377.5173645019531	1406.658935546875	34.08608245849609	324.6416931152344	1432.15185546875	317.537841796875	377.4358520507812	1385.606689453125	24.50636672973633	533.9420776367188	1339.95166015625	31.69420433044434	461.12744140625	1437.252807617188	28.53674507141113	430.4473266601562	1338.099731445312	26.34295272827148	290.2914123535156	1176.417114257812	487.8439025878906	477.0997924804688	1114.308227539062	732.4213256835938	427.6004333496094	1126.55810546875	95.54932403564453	290.6012573242188	1170.672119140625	352.7814636230469	452.4472351074219	1187.372802734375	46.7499885559082	472.0830993652344	1219.521850585938	55.7025032043457	407.9186706542969	1122.1376953125	59.49666595458984	396.1789855957031	1168.781494140625	104.1030807495117	234.5080261230469	nan	nan	nan	nan	nan	nan	
459	4.58	1204.67236328125	950.6022338867188	246.5171203613281	1326.983276367188	953.5626831054688	231.3821868896484	1271.9111328125	1026.750244140625	236.6379089355469	1300.619018554688	1192.119262695312	449.5148620605469	1265.306396484375	1129.700805664062	221.9798431396484	1257.1220703125	1360.13232421875	266.9390869140625	1288.309448242188	1286.801025390625	415.4577941894531	1171.496948242188	1233.943603515625	230.815673828125	1341.916381835938	1309.318969726562	226.5566253662109	1425.5966796875	1364.221313476562	306.5094299316406	1496.331420898438	1243.53271484375	295.8179626464844	1551.75341796875	1041.511962890625	326.1253051757812	1473.78466796875	1014.490417480469	269.9089660644531	1557.166137695312	881.236328125	454.3429565429688	1581.172241210938	829.30419921875	379.3022155761719	1567.673217773438	963.6728515625	357.0651245117188	1575.77587890625	730.839599609375	495.5598754882812	1593.152099609375	785.5130615234375	415.6950988769531	1590.844482421875	811.74462890625	475.3487243652344	1120.24267578125	1346.280517578125	345.4594421386719	1065.282836914062	1276.886474609375	334.1278991699219	1021.489013671875	1011.2451171875	325.9071044921875	1059.025634765625	994.6932983398438	275.5090026855469	1057.553466796875	805.1397094726562	421.4734191894531	1005.306823730469	782.4928588867188	351.3225708007812	1013.642456054688	956.0499877929688	328.4221801757812	1051.262817382812	647.1841430664062	422.2688598632812	1033.136840820312	713.8223876953125	436.7480773925781	1004.37255859375	713.6911010742188	371.7989501953125	1165.805786132812	1506.611572265625	337.5744934082031	1330.328247070312	1582.338745117188	426.5690307617188	1206.947143554688	1567.121215820312	454.8870849609375	1318.86669921875	1521.21533203125	287.8193664550781	1474.320434570312	887.379150390625	319.0251770019531	1097.4375	856.6331787109375	379.5099792480469	1179.746459960938	909.6334838867188	459.9502868652344	1418.915161132812	925.8712158203125	419.8524169921875	1434.432006835938	471.9167175292969	393.4020080566406	1460.994750976562	627.74462890625	379.1390991210938	1406.651977539062	34.05622100830078	324.6191711425781	1432.967895507812	317.2984008789062	377.6592407226562	1385.638671875	24.51242256164551	533.8861694335938	1339.95751953125	31.73084449768066	461.1663208007812	1437.2421875	28.52292251586914	430.4417724609375	1338.147338867188	26.40986633300781	290.3068542480469	1179.2119140625	488.1648864746094	478.9171142578125	1116.709228515625	733.0054321289062	430.1625671386719	1132.739013671875	89.88599395751953	302.9763488769531	1174.230834960938	351.9715881347656	457.1734008789062	1194.719482421875	47.46258544921875	485.8560180664062	1226.446044921875	54.64742660522461	421.1676940917969	1129.003784179688	57.42373275756836	409.733642578125	1174.604248046875	97.00006103515625	246.3708038330078	nan	nan	nan	nan	nan	nan	
